<?xml version="1.0" encoding="UTF-8"?>
<svg id="Layer_2" data-name="Layer 2" xmlns="http://www.w3.org/2000/svg" xmlns:xlink="http://www.w3.org/1999/xlink" viewBox="0 0 119.94 77.54">
  <defs>
    <style>
      .cls-1 {
        fill: url(#linear-gradient);
      }

      .cls-1, .cls-2, .cls-3, .cls-4, .cls-5, .cls-6, .cls-7, .cls-8, .cls-9, .cls-10, .cls-11, .cls-12, .cls-13 {
        stroke-width: 0px;
      }

      .cls-2 {
        fill: url(#linear-gradient-6);
      }

      .cls-4 {
        fill: url(#linear-gradient-5);
      }

      .cls-5 {
        fill: #27a7df;
      }

      .cls-6 {
        fill: url(#linear-gradient-2);
      }

      .cls-7 {
        fill: url(#linear-gradient-7);
      }

      .cls-8 {
        fill: url(#linear-gradient-3);
      }

      .cls-9 {
        fill: url(#linear-gradient-9);
      }

      .cls-10 {
        fill: url(#linear-gradient-8);
      }

      .cls-11 {
        fill: #1475ba;
      }

      .cls-12 {
        fill: #1075ba;
      }

      .cls-13 {
        fill: url(#linear-gradient-4);
      }
    </style>
    <linearGradient id="linear-gradient" x1="64.03" y1="61.13" x2="102.43" y2="61.13" gradientUnits="userSpaceOnUse">
      <stop offset="0" stop-color="#eab61f"/>
      <stop offset="0" stop-color="#dca527"/>
      <stop offset=".32" stop-color="#b37b2b"/>
      <stop offset=".68" stop-color="#fdd548"/>
      <stop offset="1" stop-color="#ebca31"/>
    </linearGradient>
    <linearGradient id="linear-gradient-2" x1="33.3" y1="61.15" x2="59.25" y2="61.15" xlink:href="#linear-gradient"/>
    <linearGradient id="linear-gradient-3" x1="38.12" y1="61.47" x2="66.34" y2="61.47" xlink:href="#linear-gradient"/>
    <linearGradient id="linear-gradient-4" x1="19.42" y1="61.16" x2="35.34" y2="61.16" xlink:href="#linear-gradient"/>
    <linearGradient id="linear-gradient-5" x1="6.98" y1="61.33" x2="21.63" y2="61.33" xlink:href="#linear-gradient"/>
    <linearGradient id="linear-gradient-6" x1="102.65" y1="49.12" x2="107.81" y2="49.12" xlink:href="#linear-gradient"/>
    <linearGradient id="linear-gradient-7" x1="106.88" y1="45.97" x2="107.95" y2="45.97" xlink:href="#linear-gradient"/>
    <linearGradient id="linear-gradient-8" x1="0" y1="72.11" x2="5.17" y2="72.11" xlink:href="#linear-gradient"/>
    <linearGradient id="linear-gradient-9" x1="4.24" y1="68.96" x2="5.31" y2="68.96" xlink:href="#linear-gradient"/>
  </defs>
  <g id="Layer_1-2" data-name="Layer 1">
    <g>
      <g>
        <path class="cls-12" d="m80.03,28.33l7.06,22.64c.09.42.8.12.8.12l4.28-14.41-7.13-22.75"/>
        <polygon class="cls-5" points="20.45 50.98 20.45 10.58 9.55 20.26 9.55 50.98 20.45 50.98"/>
        <polygon class="cls-5" points="72.11 51.1 85.03 13.93 83.79 10.55 75.85 10.55 62.49 51.1 72.11 51.1"/>
        <polygon class="cls-5" points="87.89 51.1 98.05 51.1 111.06 10.55 99.92 10.55 87.89 51.1"/>
        <path class="cls-11" d="m20.45,10.57l39.63-.03,7.01,26.58-4.61,13.97s-.98.27-1.16-.89l-9.15-28.93h-6.49v29.7h-10.95s0-29.7,0-29.7h-14.28v-10.7Z"/>
        <polygon class="cls-5" points="45.4 0 45.4 10.55 34.83 10.58 34.83 0 45.4 0"/>
        <circle class="cls-5" cx="13.38" cy="5.51" r="5.26"/>
        <g>
          <path class="cls-3" d="m114.96,6.65c0,.06,0,.11,0,.15s-.01.07-.02.1c-.01.03-.02.04-.04.06-.01.01-.03.02-.05.02h-.97v3.13s0,.04-.02.05-.03.03-.06.04c-.03.01-.07.02-.12.02-.05,0-.11,0-.19,0s-.14,0-.19,0-.09-.01-.12-.02c-.03,0-.05-.02-.06-.04-.01-.02-.02-.03-.02-.05v-3.13h-.97s-.04,0-.05-.02c-.01-.01-.03-.03-.04-.06-.01-.02-.02-.06-.02-.1,0-.04,0-.09,0-.15s0-.11,0-.15c0-.04.01-.08.02-.1.01-.02.02-.04.04-.05.01-.01.03-.02.05-.02h2.74s.03,0,.05.02.03.03.04.05c.01.03.02.06.02.1s0,.09,0,.15Z"/>
          <path class="cls-3" d="m119.94,10.1s0,.04-.02.05-.03.03-.06.04c-.03.01-.07.02-.12.02s-.11,0-.18,0-.13,0-.18,0-.09-.01-.11-.02c-.03,0-.05-.02-.06-.04-.01-.02-.02-.03-.02-.05v-3.16h0l-1.12,3.15s-.02.05-.04.06-.04.03-.07.04c-.03,0-.07.02-.12.02-.05,0-.11,0-.17,0s-.13,0-.17,0c-.05,0-.09-.01-.12-.02-.03-.01-.06-.02-.07-.04s-.03-.03-.04-.06l-1.09-3.15h0v3.16s0,.04-.02.05-.03.03-.06.04c-.03.01-.07.02-.12.02s-.11,0-.18,0-.13,0-.18,0-.09-.01-.12-.02c-.03,0-.05-.02-.06-.04s-.02-.03-.02-.05v-3.46c0-.1.03-.18.08-.23.05-.05.13-.08.22-.08h.52c.09,0,.17,0,.24.02s.12.04.17.07.09.08.12.14c.03.06.06.13.08.21l.84,2.31h.01l.87-2.31c.03-.08.05-.15.09-.21.03-.06.07-.1.11-.14.04-.04.09-.06.15-.08s.12-.02.2-.02h.53c.05,0,.1,0,.14.02.04.01.07.03.1.06s.04.06.06.1c.01.04.02.08.02.13v3.46Z"/>
        </g>
      </g>
      <g>
        <path class="cls-1" d="m67.07,53.88c.55,0,1.05,0,1.55,0,1.88.02,3.77-.02,5.64.1,1.47.09,2.76.67,3.52,2.03.23.4.35.87.52,1.32.03-.07.09-.18.14-.3.05-.12.07-.25.12-.36.66-1.54,1.9-2.39,3.45-2.83,1.36-.38,2.74-.42,4.14-.2,1.14.18,2.18.55,3.05,1.35.8.73,1.17,1.67,1.31,2.71.03.24-.06.35-.29.37-1.3.13-2.6.26-3.9.37-.11,0-.3-.14-.34-.25-.26-.73-.75-1.11-1.53-1.13-.3,0-.61-.01-.9.05-.5.12-.79.49-.78.9.01.38.32.72.79.85,1,.27,2,.49,2.99.79,1.05.32,2.04.79,2.64,1.78.18.3.28.65.41.98.03.08.07.17.18.25.11-.46.22-.92.31-1.38.33-1.57.66-3.14.99-4.71.16-.77.32-1.54.48-2.31.05-.25.14-.39.45-.39,3.36.01,6.73,0,10.09,0,.08,0,.17.01.33.02-.12.57-.23,1.11-.34,1.64-.11.5-.25,1-.31,1.51-.04.32-.16.4-.46.39-1.81-.01-3.62,0-5.43-.01-.34,0-.5.1-.55.43-.07.44-.16.87-.26,1.38h5.82c-.12.62-.23,1.16-.34,1.7-.11.52-.26,1.03-.33,1.55-.04.31-.17.37-.44.37-1.67,0-3.33,0-5,0-.35,0-.54.05-.58.47-.04.48-.2.95-.32,1.48h6.6c-.11.38-.19.7-.28,1.03-.21.76-.42,1.52-.62,2.28-.06.23-.17.32-.42.32-3.42,0-6.84,0-10.26,0-.09,0-.19-.03-.31-.05.13-.67.26-1.3.39-1.95-.51.43-.96.9-1.49,1.24-1.36.88-2.89,1.1-4.48,1.08-1.47-.02-2.87-.26-4.14-1.07-1.28-.81-2.17-2.66-1.93-4.11.06,0,.13-.02.2-.02,1.41,0,2.81,0,4.24,0,.07.24.13.46.2.67.14.44.43.73.87.87.66.2,1.32.2,1.99,0,.44-.13.65-.48.74-.85.06-.22-.14-.51-.25-.76-.03-.06-.83-.4-1.13-.48-.97-.26-1.95-.49-2.88-.84-1.3-.5-2.35-1.29-2.61-2.81-.26.56-.46,1.11-.75,1.62-.52.91-1.32,1.53-2.24,2-.21.11-.24.21-.17.39.47,1.24.93,2.49,1.4,3.73.15.41.3.82.46,1.29-.22.01-.35.03-.49.03-1.21,0-2.41-.02-3.62.01-.4.01-.52-.17-.62-.49-.38-1.27-.78-2.54-1.16-3.81-.08-.28-.22-.4-.52-.37-.23.03-.46,0-.69,0-.64,0-.62,0-.74.65-.25,1.27-.51,2.53-.79,3.78-.02.09-.19.21-.29.22-1.26.01-2.53,0-3.79.01-.23,0-.29-.07-.23-.32.41-1.83.8-3.67,1.19-5.5.52-2.45,1.04-4.9,1.56-7.36.09-.45.18-.89.27-1.37Zm3.62,3.46c-.22,1-.43,2-.66,3.06,1.02-.02,1.97.13,2.88-.22.67-.26,1-.9.9-1.8-.06-.53-.51-.98-1.1-1.02-.66-.04-1.32,0-2.02,0Z"/>
        <path class="cls-6" d="m53.86,61.87c.53-2.53,1.07-5.06,1.6-7.59l-.1-.04c-.23.44-.47.87-.69,1.31-1.27,2.48-2.53,4.96-3.8,7.44-.88,1.72-1.76,3.44-2.66,5.16-.07.14-.3.27-.45.27-1.7.02-3.39,0-5.09.02-.32,0-.41-.1-.44-.42-.23-2.56-.49-5.12-.73-7.67-.15-1.59-.28-3.17-.43-4.76-.04-.44-.1-.88-.21-1.33-.14.64-.29,1.27-.43,1.91-.24,1.13-.47,2.27-.71,3.41-.38,1.81-.75,3.62-1.13,5.42-.22,1.02-.44,2.04-.66,3.07-.05.25-.15.38-.46.38-1.28-.02-2.56-.02-3.84,0-.32,0-.4-.1-.34-.4.38-1.72.75-3.44,1.11-5.17.37-1.78.73-3.56,1.11-5.34.23-1.08.49-2.15.7-3.23.07-.36.23-.41.55-.41,2.57.01,5.14,0,7.72,0,.3,0,.6.02.91,0,.33-.02.45.08.46.43.08,2.93.18,5.86.27,8.79,0,.04.01.08.02.17.08-.07.16-.11.19-.17,1.14-2.5,2.28-5.01,3.42-7.51.19-.42.39-.82.57-1.24.14-.34.35-.47.75-.47,2.51.02,5.03.01,7.54.01.17,0,.34,0,.63,0-1.58,2.87-3.38,5.48-5.28,8.03-.04-.01-.07-.02-.11-.03Z"/>
        <path class="cls-8" d="m54.36,50.5c.89-.79,1.76-1.61,2.68-2.37,1.07-.9,2.19-1.73,3.47-2.31.58-.27,1.17-.46,1.82-.4.59.05,1.03.45,1.14,1.03.2,1.07,0,2.1-.37,3.08-.5,1.35-1.11,2.66-1.66,3.98-.04.09-.06.19-.12.35h5.02c-.12.61-.21,1.14-.32,1.67-.11.52-.25,1.03-.34,1.55-.05.32-.21.38-.5.38-1.77-.01-3.54,0-5.3,0h-.53c-.13.6-.25,1.17-.38,1.82h5.83c-.11.6-.21,1.13-.32,1.66-.1.51-.24,1-.33,1.51-.06.34-.21.44-.54.43-1.65-.02-3.31,0-4.96-.01-.33,0-.49.09-.55.43-.08.5-.22,1-.34,1.54h6.6c-.14.58-.27,1.12-.41,1.65-.15.57-.3,1.14-.5,1.69-.04.12-.26.24-.4.25-.99.02-1.98.01-2.97.01-2.37,0-4.74,0-7.11,0-.36,0-.5-.07-.39-.46.13-.48.2-.98.22-1.51-.42.49-.83.98-1.25,1.47-2.22,2.56-4.55,5.01-7.21,7.12-1.14.91-2.32,1.76-3.7,2.26-.34.13-.72.18-1.09.21-1,.1-1.45-.66-1.42-1.34.03-.81.09-1.64.3-2.42.26-.96.67-1.88,1.03-2.81.03-.09.1-.17.22-.23-.11.37-.23.74-.34,1.1-.29.98-.51,1.96-.47,3,.03.89.66,1.32,1.58,1.04,1.18-.37,2.17-1.07,3.13-1.81,2.47-1.91,4.61-4.16,6.66-6.5,2.28-2.61,4.39-5.35,6.33-8.22,1.58-2.35,3.05-4.76,4.23-7.33.52-1.14,1.01-2.31,1.2-3.56.06-.4.07-.84-.01-1.24-.14-.67-.56-.87-1.23-.67-1.11.33-2.08.93-3,1.6-1.07.77-2.11,1.6-3.16,2.41-.04.03-.1.04-.15.06-.03-.04-.06-.07-.08-.11Z"/>
        <path class="cls-13" d="m26.37,63.38c-.32-.82-.65-1.64-1.08-2.48-.37,1.76-1.79,7.54-2.12,7.54-1.09-.02-2.18,0-3.28,0-.14,0-.28,0-.47,0,.03-.29.05-.53.09-.76.49-2.3,1-4.59,1.49-6.88.44-2.03.86-4.06,1.29-6.09.17-.81.18-.81,1.02-.81.91,0,1.81,0,2.72,0,.26,0,.41.05.51.33.65,1.69,1.32,3.37,1.99,5.06.28.7.55,1.41.86,2.19.07-.18.13-.29.16-.42.33-1.56.64-3.11.97-4.67.15-.73.29-1.46.47-2.18.03-.12.21-.28.33-.28,1.28-.02,2.56-.01,3.84,0,.04,0,.08.03.18.07-.16.79-.33,1.58-.49,2.38-.38,1.84-.76,3.67-1.15,5.51-.31,1.44-.62,2.88-.93,4.32-.13.59-.25,1.18-.35,1.77-.06.34-.18.52-.58.5-1.02-.03-2.04-.02-3.06,0-.27,0-.43-.05-.53-.35-.31-.87-.67-1.73-1.01-2.59-.06-.14-.63-1.54-.84-2.11Z"/>
        <path class="cls-4" d="m21.63,53.88c-.18.86-.34,1.62-.5,2.39-.38,1.82-.75,3.65-1.14,5.47-.32,1.47-.59,2.94-1.43,4.24-.92,1.42-2.23,2.27-3.87,2.58-1.71.32-3.43.34-5.07-.37-1.5-.65-2.32-1.83-2.56-3.44-.23-1.53.13-2.99.43-4.47.17-.85.26-1.72.44-2.56.17-.8.41-1.59.61-2.39.09-.37.14-.76.25-1.13.04-.12.21-.3.32-.3,1.39-.02,2.79,0,4.18,0,.04,0,.08.03.16.06-.07.39-.12.78-.2,1.17-.4,1.88-.82,3.75-1.22,5.63-.15.69-.27,1.38-.41,2.07,0,.03,0,.06,0,.09-.12,1.06.21,1.64,1.07,1.86.88.22,1.85-.25,2.14-1.14.31-.96.54-1.96.77-2.95.26-1.12.47-2.24.7-3.36.21-1.01.41-2.02.63-3.03.03-.15.2-.37.31-.37,1.43-.03,2.87-.02,4.4-.02Z"/>
        <path class="cls-2" d="m105.09,51.74c0-.4,0-.8,0-1.2-.02-.73-.47-1.31-1.33-1.28-.37.01-.74-.06-1.12-.1,0-.05,0-.1,0-.15.38,0,.77.02,1.15,0,.81-.05,1.22-.43,1.28-1.24.03-.42,0-.84,0-1.26.04,0,.09,0,.13,0,.04.43.1.85.12,1.28.04.75.41,1.17,1.16,1.22.43.03.86,0,1.3,0,0,.05,0,.1,0,.15-.42.04-.84.09-1.26.11-.76.04-1.16.44-1.2,1.21-.02.43-.08.85-.12,1.27-.05,0-.09,0-.14,0Z"/>
        <path class="cls-7" d="m107.42,46.5c-.28,0-.52-.23-.54-.51-.01-.31.22-.54.53-.54.33,0,.51.17.54.49.03.28-.24.55-.53.55Z"/>
        <path class="cls-10" d="m2.45,74.72c0-.4,0-.8,0-1.2-.02-.73-.47-1.31-1.33-1.28-.37.01-.74-.06-1.12-.1,0-.05,0-.1,0-.15.38,0,.77.02,1.15,0,.81-.05,1.22-.43,1.28-1.24.03-.42,0-.84,0-1.26.04,0,.09,0,.13,0,.04.43.1.85.12,1.28.04.75.41,1.17,1.16,1.22.43.03.86,0,1.3,0,0,.05,0,.1,0,.15-.42.04-.84.09-1.26.11-.76.04-1.16.44-1.2,1.21-.02.43-.08.85-.12,1.27-.05,0-.09,0-.14,0Z"/>
        <path class="cls-9" d="m4.77,69.48c-.28,0-.52-.23-.54-.51-.01-.31.22-.54.53-.54.33,0,.51.17.54.49.03.28-.24.55-.53.55Z"/>
      </g>
    </g>
  </g>
</svg>